Format : Matroska
      File size : 6.73 GiB
      Duration : 2h 4mn
      Overall bit rate : 7 744 Kbps
      Movie name : The.Jackal.1997.720p.BluRay.DTS.x264-DON
      Writing application : AVI-Mux GUI 1.17.8, Aug 30 2008  12:36:58
      Writing library : matroska muxer by Alexander Noe, build date Aug 30 2008
   Video #1
      ID : 1
      Format : AVC
      Format/Info : Advanced Video Codec
      Format profile : High@L5.1
      Format settings, CABAC : Yes
      Format settings, ReFrames : 8 frames
      Muxing mode : Container profile=Unknown@5.1
      Codec ID : V_MPEG4/ISO/AVC
      Duration : 2h 4mn
      Bit rate : 5 888 Kbps
      Nominal bit rate : 6 040 Kbps
      Width : 1 280 pixels
      Height : 544 pixels
      Display aspect ratio : 2.35:1
      Frame rate : 23.976 fps
      Resolution : 24 bits
      Colorimetry : 4:2:0
      Scan type : Progressive
      Bits/(Pixel*Frame) : 0.353
      Stream size : 5.11 GiB (76%)
      Writing library : x264 core 56 svn-672
      Encoding settings : cabac=1 / ref=5 / deblock=1:0:0 / analyse=0x3:0x113 / me=umh / subme=7 / brdo=1 / mixed_ref=1 / me_range=16 / chroma_me=1 / trellis=1 / 8x8dct=1 / cqm=0 / deadzone=21,11 / chroma_qp_offset=0 / threads=6 / nr=0 / decimate=1 / mbaff=0 / bframes=3 / b_pyramid=1 / b_adapt=1 / b_bias=0 / direct=1 / wpredb=1 / bime=1 / keyint=250 / keyint_min=25 / scenecut=40(pre) / rc=2pass / bitrate=6040 / ratetol=1.0 / rceq='blurCplx^(1-qComp)' / qcomp=0.60 / qpmin=10 / qpmax=51 / qpstep=4 / cplxblur=20.0 / qblur=0.5 / ip_ratio=1.40 / pb_ratio=1.30
      Language : English
   Audio #2
      ID : 2
      Format : AC-3
      Format/Info : Audio Coding 3
      Codec ID : A_AC3
      Duration : 2h 4mn
      Bit rate mode : Constant
      Bit rate : 192 Kbps
      Channel(s) : 2 channels
      Channel positions : L R
      Sampling rate : 48.0 KHz
      Video delay : 31s 568ms
      Stream size : 171 MiB (2%)
      Title : Bulgarian - New - [08.04.2010] - [12.46.33]
      Language : English
   Audio #3
      ID : 3
      Format : DTS
      Format/Info : Digital Theater Systems
      Codec ID : A_DTS
      Duration : 2h 4mn
      Bit rate mode : Constant
      Bit rate : 1 510 Kbps
      Channel(s) : 6 channels
      Channel positions : Front: L C R, Surround: L R, LFE
      Sampling rate : 48.0 KHz
      Resolution : 16 bits
      Stream size : 1.31 GiB (19%)
      Language : English
   Text #4
      ID : 4
      Format : UTF-8
      Codec ID : S_TEXT/UTF8
      Codec ID/Info : UTF-8 Plain Text
      Language : English / English / 
